<svg width="12" height="21" viewBox="0 0 12 21" fill="none" xmlns="http://www.w3.org/2000/svg">
<path fill-rule="evenodd" clip-rule="evenodd" d="M10.7422 16.1716C10.7356 18.3025 9.36993 20.1787 7.37783 20.7936C5.38572 21.4085 3.23523 20.6177 2.08 18.8454C0.924767 17.0731 1.03622 14.7358 2.35455 13.0872C2.67127 12.6864 3.22696 12.5838 3.66035 12.8462L4.97791 13.6414C4.69558 13.9306 4.42501 14.2318 4.1662 14.5451C3.45995 15.3809 3.37616 16.5935 3.96042 17.5229C4.54469 18.4523 5.65719 18.876 6.69242 18.5635C7.72766 18.251 8.43787 17.277 8.43651 16.1716C8.43641 15.3482 8.04042 14.5776 7.37776 14.1113H7.366L7.08366 13.9426L5.61317 13.051L5.6014 13.039L3.71917 11.9064L2.96628 11.4486C2.93099 11.4245 2.90746 11.4125 2.87217 11.3884C2.76587 11.3271 2.66369 11.2587 2.5663 11.1835C0.444515 9.66687 -0.488857 6.92787 0.25071 4.38839C0.990278 1.84892 3.23616 0.0811328 5.82248 0.00271229C8.40881 -0.0757082 10.7529 1.55291 11.6378 4.04312C12.5228 6.53334 11.7493 9.32409 9.71879 10.9667C9.38532 11.2397 8.92181 11.2733 8.55415 11.051L6.43664 9.79797V7.09913H7.41305V4.34004H6.43664V3.18339H4.81322V9.82207L6.43664 10.7859L8.213 11.8462C8.24152 11.8603 8.26904 11.8764 8.29535 11.8944L8.3777 11.9426C8.42475 11.9667 8.46004 11.9908 8.5071 12.0149C9.90105 12.9141 10.7454 14.4844 10.7422 16.1716Z" fill="#454D4E"/>
</svg>
